Coordinates
version=1
nRows=12
nColumns=34
inDegrees=yes

Units are S.I. units (second, meters, Newtons, ...)
If the header above contains a line with 'inDegrees', this indicates whether rotational values are in degrees (yes) or radians (no).

endheader
time	pelvis_tilt	pelvis_list	pelvis_rotation	pelvis_tx	pelvis_ty	pelvis_tz	hip_flexion_r	hip_adduction_r	hip_rotation_r	knee_angle_r	ankle_angle_r	subtalar_angle_r	mtp_angle_r	hip_flexion_l	hip_adduction_l	hip_rotation_l	knee_angle_l	ankle_angle_l	subtalar_angle_l	mtp_angle_l	lumbar_extension	lumbar_bending	lumbar_rotation	arm_flex_r	arm_add_r	arm_rot_r	elbow_flex_r	pro_sup_r	arm_flex_l	arm_add_l	arm_rot_l	elbow_flex_l	pro_sup_l
      1.25000000	      0.12970019	      1.65448418	     -0.45927282	     -0.72169361	      0.91782391	      0.18403474	     24.70842500	      0.43632462	     -4.82339883	    -30.21290286	     -1.41112635	      4.18467981	     73.39053754	     -5.34809535	      5.00596835	      0.42610982	     -9.33989030	     11.01203363	      3.15711040	      0.00000000	     -7.12045865	     -1.50754973	     -6.30878913	     -7.68510282	    -17.08541616	      5.22025885	     21.32017311	     90.00000000	      0.75786122	    -19.25471325	     11.82463334	     36.22119582	     90.00000000
      1.26000000	     -0.16103892	      1.82566565	     -0.39680586	     -0.70878116	      0.91651873	      0.18468236	     24.97575130	      0.32412293	     -5.00767242	    -26.25939965	     -1.18039235	      4.42637736	     73.23936547	     -6.20464285	      5.13872909	      0.28933711	     -8.82040632	     11.05678694	      3.24160376	      0.00000000	     -6.79036671	     -1.69495233	     -6.57837054	     -8.23124662	    -16.96847464	      5.07069278	     21.02845841	     90.00000000	      1.19651086	    -19.56864977	     11.72646571	     36.85022344	     90.00000000
      1.27000000	      0.45835452	      1.50286552	     -0.27711657	     -0.69556555	      0.91657823	      0.18517782	     23.98692631	      0.64034363	     -5.68726592	    -21.95839589	     -1.24190836	      5.49476203	     72.86010295	     -8.06804905	      4.70644785	     -0.10947612	     -8.24496757	     11.01210319	      3.77327730	      0.00000000	     -7.57670318	     -1.26534936	     -6.91301135	     -8.06030470	    -16.68346877	      4.50096221	     19.43701138	     90.00000000	      1.52604183	    -19.88929529	     11.75435803	     38.27699780	     90.00000000
      1.28000000	      0.65474674	      1.45585111	     -0.05841914	     -0.68248272	      0.91580257	      0.18554457	     23.55593875	      0.65337251	     -6.43041122	    -18.03410135	     -1.19293348	      7.09351294	     72.44329712	     -9.35948654	      4.55163819	     -0.17966472	     -7.88158921	     11.03466216	      4.24426036	      0.00000000	     -7.87158833	     -1.15585920	     -7.31848595	     -8.35970578	    -16.56568459	      4.37379637	     18.94385753	     90.00000000	      1.82673235	    -20.17463179	     11.48214720	     39.45053717	     90.00000000
      1.29000000	      0.74822906	      1.34641367	      0.30044943	     -0.66935490	      0.91476338	      0.18571584	     23.22715024	      0.68910766	     -7.39046931	    -14.36475528	     -1.03315621	      9.12958382	     71.94092512	    -10.44227008	      4.30026529	     -0.06726655	     -7.70011644	     11.15565655	      4.69977105	      0.00000000	     -8.04911632	     -0.94389004	     -7.81616725	     -8.55646508	    -16.42305062	      3.93518952	     18.25572838	     90.00000000	      2.12857485	    -20.41175196	     11.27237320	     40.46764009	     90.00000000
      1.30000000	      1.04174585	      1.36764644	      0.39222833	     -0.65584324	      0.91394691	      0.18634541	     22.76692665	      0.70703248	     -8.32794249	    -11.17741512	     -0.59678983	     11.67902714	     71.56411241	    -11.82755279	      4.20805555	     -0.11513921	     -7.38586298	     11.05770648	      5.17954693	      0.00000000	     -8.41490441	     -0.91946767	     -8.03672080	     -8.88747824	    -16.26613542	      3.70974052	     17.91572128	     90.00000000	      2.36022323	    -20.64385649	     11.04289049	     41.54779485	     90.00000000
      1.31000000	      1.31687319	      1.32967511	      0.53465189	     -0.64224949	      0.91308980	      0.18703286	     22.33242228	      0.80673196	     -9.39027865	     -8.32994667	     -0.50345204	     14.26072729	     71.36046165	    -13.09675083	      4.02668205	     -0.00909436	     -7.30523163	     11.06877856	      5.33666738	      0.00000000	     -8.74261448	     -0.82139580	     -8.27502230	     -9.14161575	    -16.11484917	      3.25335544	     17.44324501	     90.00000000	      2.57699211	    -20.84032965	     10.79250321	     42.55443821	     90.00000000
      1.32000000	      1.53612056	      1.30268378	      0.64131815	     -0.62852307	      0.91212278	      0.18785307	     22.05328805	      0.93557484	    -10.28171121	     -6.09344626	     -0.50487857	     16.18488248	     71.31776458	    -14.23931328	      3.85034200	      0.16744791	     -7.32934880	     10.66462525	      5.53031147	      0.00000000	     -8.98805532	     -0.73437302	     -8.46200027	     -9.36044562	    -15.92941294	      2.79708117	     16.94702734	     90.00000000	      2.71730245	    -21.03454142	     10.59371590	     43.51557516	     90.00000000
      1.33000000	      1.61520005	      1.28044953	      0.62257551	     -0.61474374	      0.91082106	      0.18890325	     22.03981817	      1.12218153	    -10.90292868	     -4.52273751	     -0.56939239	     17.53298800	     71.34713066	    -15.15577610	      3.71498627	      0.27815740	     -7.49561145	     10.57455290	      5.64242672	      0.00000000	     -9.04928259	     -0.66486165	     -8.52428294	     -9.64374178	    -15.80424940	      2.45884201	     16.62864826	     90.00000000	      2.81740594	    -21.16890436	     10.36705798	     44.33141295	     90.00000000
      1.34000000	      1.77634904	      1.17493719	      0.72726960	     -0.60072874	      0.90969360	      0.18971269	     21.98729973	      1.31014987	    -11.53926415	     -3.60102069	     -0.41619506	     18.84256490	     71.62816224	    -16.06539912	      3.47883021	      0.55249220	     -7.88192906	     10.33551669	      5.80049344	      0.00000000	     -9.18730943	     -0.47134217	     -8.71032193	     -9.81453585	    -15.67621939	      2.14825400	     16.21884548	     90.00000000	      2.81722223	    -21.18955392	      9.88104859	     45.13191553	     90.00000000
      1.35000000	      1.85108750	      1.11268209	      0.73739473	     -0.58660841	      0.90842762	      0.19071448	     22.05627189	      1.45530433	    -11.91700216	     -3.22093973	     -0.38807281	     20.15536715	     72.83774331	    -16.82605665	      3.31463758	      0.86587824	     -8.34404726	     10.05340721	      5.60042016	      0.00000000	     -9.18490286	     -0.32550774	     -8.85519891	     -9.89599304	    -15.55037942	      2.05953699	     15.70727472	     90.00000000	      2.67304862	    -21.22470342	      9.42651324	     45.93832836	     90.00000000
      1.36000000	      1.79762134	      1.12568430	      0.72314401	     -0.57233378	      0.90691081	      0.19164953	     22.27935615	      1.51233870	    -11.80682631	     -3.45238730	     -0.30922346	     20.09792974	     72.85530863	    -17.28153222	      3.24838688	      0.99766941	     -9.15944722	      9.94377830	      5.59942512	      0.00000000	     -9.00758909	     -0.23876806	     -8.89652559	    -10.30214166	    -15.54550977	      2.02080415	     15.96341004	     90.00000000	      2.66055185	    -21.24879338	      9.34372363	     46.24323146	     90.00000000
